name C:\Users\u0101727\Documents\MyRepositories\upper-imu-dc\Results\main_tracking\Case_14\ABD01_linearAccelerations_groundFrame.mot
datacolumns 4
datarows 141
range 4.56000000 5.96000000
endheader 
time	radius_imu_x	radius_imu_y	radius_imu_z	
          4.56000000	          0.40513481	          9.47635174	         -0.34277744	
          4.57000000	          0.41631701	          9.51834648	         -0.32443812	
          4.58000000	          0.42148388	          9.56926869	         -0.30698787	
          4.59000000	          0.42098736	          9.62462736	         -0.29091193	
          4.60000000	          0.41269430	          9.67941808	         -0.27668422	
          4.61000000	          0.39370182	          9.72790540	         -0.26528117	
          4.62000000	          0.36223803	          9.76396406	         -0.25821539	
          4.63000000	          0.31851505	          9.78216746	         -0.25689635	
          4.64000000	          0.26453403	          9.77926339	         -0.26164829	
          4.65000000	          0.20377158	          9.75531990	         -0.27117413	
          4.66000000	          0.14139486	          9.71381465	         -0.28298913	
          4.67000000	          0.08471233	          9.66041690	         -0.29453505	
          4.68000000	          0.04286935	          9.60110322	         -0.30406977	
          4.69000000	          0.02495111	          9.54077191	         -0.31065371	
          4.70000000	          0.03685841	          9.48300840	         -0.31348334	
          4.71000000	          0.07851047	          9.43066642	         -0.31135394	
          4.72000000	          0.14283754	          9.38650825	         -0.30263875	
          4.73000000	          0.21720721	          9.35323867	         -0.28591165	
          4.74000000	          0.28684379	          9.33312512	         -0.26077417	
          4.75000000	          0.33947673	          9.32723061	         -0.22838162	
          4.76000000	          0.36947274	          9.33487623	         -0.19137210	
          4.77000000	          0.37937506	          9.35374230	         -0.15328762	
          4.78000000	          0.37786583	          9.38050635	         -0.11785418	
          4.79000000	          0.37546979	          9.41153000	         -0.08844071	
          4.80000000	          0.38063063	          9.44326981	         -0.06777599	
          4.81000000	          0.39789080	          9.47252679	         -0.05775319	
          4.82000000	          0.42808056	          9.49683330	         -0.05912538	
          4.83000000	          0.46940972	          9.51505005	         -0.07113792	
          4.84000000	          0.51841234	          9.52795511	         -0.09139699	
          4.85000000	          0.57031738	          9.53846765	         -0.11618187	
          4.86000000	          0.61903751	          9.55124332	         -0.14124790	
          4.87000000	          0.65724257	          9.57164730	         -0.16283103	
          4.88000000	          0.67681593	          9.60438217	         -0.17844833	
          4.89000000	          0.66986651	          9.65218547	         -0.18727113	
          4.90000000	          0.63042942	          9.71489701	         -0.19018130	
          4.91000000	          0.55674244	          9.78897489	         -0.18963194	
          4.92000000	          0.45313804	          9.86756809	         -0.18916781	
          4.93000000	          0.33000376	          9.94140198	         -0.19238802	
          4.94000000	          0.20136274	         10.00047837	         -0.20155175	
          4.95000000	          0.08143859	         10.03616859	         -0.21656195	
          4.96000000	         -0.01820171	         10.04297808	         -0.23491971	
          4.97000000	         -0.09018933	         10.01967671	         -0.25266936	
          4.98000000	         -0.13173699	          9.96943271	         -0.26577766	
          4.99000000	         -0.14402100	          9.89870778	         -0.27126963	
          5.00000000	         -0.13103667	          9.81568974	         -0.26775446	
          5.01000000	         -0.09796974	          9.72822934	         -0.25590310	
          5.02000000	         -0.05215955	          9.64467651	         -0.23654735	
          5.03000000	          0.00154363	          9.56560319	         -0.21581180	
          5.04000000	          0.05345943	          9.49778880	         -0.19378404	
          5.05000000	          0.09327583	          9.44788539	         -0.16919262	
          5.06000000	          0.11748228	          9.41025897	         -0.14692696	
          5.07000000	          0.12161482	          9.38541620	         -0.12573400	
          5.08000000	          0.10613605	          9.37138617	         -0.10516362	
          5.09000000	          0.07441981	          9.36647493	         -0.08458716	
          5.10000000	          0.03234109	          9.36887342	         -0.06397058	
          5.11000000	         -0.01309620	          9.37667133	         -0.04376038	
          5.12000000	         -0.05494924	          9.38732584	         -0.02421257	
          5.13000000	         -0.08705352	          9.39757763	         -0.00493859	
          5.14000000	         -0.10429823	          9.40364114	          0.01527005	
          5.15000000	         -0.10275502	          9.40192390	          0.03814699	
          5.16000000	         -0.08014749	          9.39013878	          0.06529066	
          5.17000000	         -0.03655001	          9.36838693	          0.09730090	
          5.18000000	          0.02520746	          9.33958116	          0.13303651	
          5.19000000	          0.09975125	          9.30889638	          0.16928738	
          5.20000000	          0.17980171	          9.28242160	          0.20102090	
          5.21000000	          0.25689277	          9.26544779	          0.22228995	
          5.22000000	          0.32221574	          9.26110256	          0.22770488	
          5.23000000	          0.36793475	          9.27006235	          0.21400154	
          5.24000000	          0.38879871	          9.29131829	          0.18120627	
          5.25000000	          0.38313507	          9.32329008	          0.13299174	
          5.26000000	          0.35257324	          9.36466070	          0.07580774	
          5.27000000	          0.30091621	          9.41461941	          0.01685992	
          5.28000000	          0.23316305	          9.47248072	         -0.03812785	
          5.29000000	          0.15519233	          9.53699380	         -0.08628137	
          5.30000000	          0.07363719	          9.60579424	         -0.12758179	
          5.31000000	         -0.00473857	          9.67529556	         -0.16362861	
          5.32000000	         -0.07411775	          9.74107829	         -0.19584579	
          5.33000000	         -0.13049931	          9.79863126	         -0.22414604	
          5.34000000	         -0.17189448	          9.84418976	         -0.24670709	
          5.35000000	         -0.19801451	          9.87542836	         -0.26083622	
          5.36000000	         -0.20993336	          9.89186593	         -0.26445695	
          5.37000000	         -0.20991486	          9.89488389	         -0.25757181	
          5.38000000	         -0.20119014	          9.88731491	         -0.24291893	
          5.39000000	         -0.18740785	          9.87254395	         -0.22515856	
          5.40000000	         -0.17185828	          9.85356919	         -0.20898661	
          5.41000000	         -0.15660462	          9.83254977	         -0.19751984	
          5.42000000	         -0.14173710	          9.81092942	         -0.19166600	
          5.43000000	         -0.12513151	          9.78973085	         -0.19004101	
          5.44000000	         -0.10291484	          9.76976308	         -0.18913818	
          5.45000000	         -0.07051324	          9.75178697	         -0.18408031	
          5.46000000	         -0.02400377	          9.73664832	         -0.17014422	
          5.47000000	          0.03864695	          9.72527217	         -0.14465465	
          5.48000000	          0.11692379	          9.71846522	         -0.10849380	
          5.49000000	          0.20780643	          9.71663730	         -0.06657079	
          5.50000000	          0.30615450	          9.71960979	         -0.02690341	
          5.51000000	          0.40503556	          9.72657887	          0.00159458	
          5.52000000	          0.49603827	          9.73623489	          0.01192016	
          5.53000000	          0.57000473	          9.74702119	          0.00131476	
          5.54000000	          0.61858353	          9.75751751	         -0.02790389	
          5.55000000	          0.63650367	          9.76693015	         -0.06953293	
          5.56000000	          0.62356652	          9.77547851	         -0.11603681	
          5.57000000	          0.58493500	          9.78438017	         -0.16102244	
          5.58000000	          0.52942477	          9.79535749	         -0.20073815	
          5.59000000	          0.46670336	          9.80992836	         -0.23467341	
          5.60000000	          0.40474808	          9.82867208	         -0.26533087	
          5.61000000	          0.34839246	          9.85072283	         -0.29701124	
          5.62000000	          0.29910323	          9.87371268	         -0.33368683	
          5.63000000	          0.25571211	          9.89421751	         -0.37652221	
          5.64000000	          0.21570539	          9.90860105	         -0.42243719	
          5.65000000	          0.17670304	          9.91401674	         -0.46490844	
          5.66000000	          0.13765382	          9.90919461	         -0.49638154	
          5.67000000	          0.09921328	          9.89471599	         -0.51035716	
          5.68000000	          0.06313873	          9.87275134	         -0.50230399	
          5.69000000	          0.03116954	          9.84636701	         -0.47015291	
          5.70000000	          0.00417019	          9.81854128	         -0.41498261	
          5.71000000	         -0.01792874	          9.79118769	         -0.34138632	
          5.72000000	         -0.03535414	          9.76460212	         -0.25666135	
          5.73000000	         -0.04734470	          9.73762893	         -0.16874786	
          5.74000000	         -0.05136171	          9.70847199	         -0.08389037	
          5.75000000	         -0.04365514	          9.67574314	         -0.00556327	
          5.76000000	         -0.02143753	          9.63919833	          0.06466593	
          5.77000000	          0.01439349	          9.59990158	          0.12515613	
          5.78000000	          0.05754936	          9.55992196	          0.17259968	
          5.79000000	          0.09746988	          9.52184265	          0.20200537	
          5.80000000	          0.12218208	          9.48838254	          0.20809285	
          5.81000000	          0.12225042	          9.46225326	          0.18736969	
          5.82000000	          0.09367835	          9.44611023	          0.13974457	
          5.83000000	          0.03811758	          9.44234035	          0.06910745	
          5.84000000	         -0.03799529	          9.45271024	         -0.01688935	
          5.85000000	         -0.12557526	          9.47797193	         -0.10774670	
          5.86000000	         -0.21493473	          9.51745270	         -0.19178204	
          5.87000000	         -0.29710003	          9.56878447	         -0.25820954	
          5.88000000	         -0.36412985	          9.62789061	         -0.29915089	
          5.89000000	         -0.40893125	          9.68925954	         -0.31113801	
          5.90000000	         -0.42544017	          9.74648395	         -0.29576634	
          5.91000000	         -0.40970499	          9.79309716	         -0.25921884	
          5.92000000	         -0.36157922	          9.82368503	         -0.21067831	
          5.93000000	         -0.28597640	          9.83501137	         -0.16004352	
          5.94000000	         -0.19256441	          9.82670792	         -0.11571929	
          5.95000000	         -0.09357577	          9.80120672	         -0.08336189	
          5.96000000	         -0.00051801	          9.76303334	         -0.06576481	
